<mxfile host="app.diagrams.net" modified="2023-06-24T05:01:41.936Z" agent="Mozilla/5.0 (Windows NT 10.0; Win64; x64) AppleWebKit/537.36 (KHTML, like Gecko) Chrome/114.0.0.0 Safari/537.36" version="21.5.0" etag="aYoAE7rB4f5niykJqLRh" type="github">
  <diagram name="第 1 页" id="GyvVa9JzEhOl_8XYyzxk">
    <mxGraphModel>
      <root>
        <mxCell id="0" />
        <mxCell id="1" parent="0" />
      </root>
    </mxGraphModel>
  </diagram>
</mxfile>
